<svg xmlns="http://www.w3.org/2000/svg" viewBox="0 0 1000 1000" xml:space="preserve" width="20" height="20"><path d="M780 587.5v175c0 43.4-15.4 80.5-46.2 111.3C703 904.6 665.9 920 622.5 920h-455c-43.4 0-80.5-15.4-111.3-46.2C25.4 843 10 805.9 10 762.5v-455c0-43.4 15.4-80.5 46.2-111.3S124.1 150 167.5 150h385c5.1 0 9.3 1.6 12.6 4.9 3.3 3.3 4.9 7.5 4.9 12.6v35c0 5.1-1.6 9.3-4.9 12.6s-7.5 4.9-12.6 4.9h-385c-24.1 0-44.7 8.6-61.8 25.7S80 283.4 80 307.5v455c0 24.1 8.6 44.7 25.7 61.8s37.7 25.7 61.8 25.7h455c24.1 0 44.7-8.6 61.8-25.7s25.7-37.7 25.7-61.8v-175c0-5.1 1.6-9.3 4.9-12.6 3.3-3.3 7.5-4.9 12.6-4.9h35c5.1 0 9.3 1.6 12.6 4.9 3.2 3.3 4.8 7.5 4.9 12.6zM990 115v280c0 9.5-3.5 17.7-10.4 24.6-6.9 6.9-15.1 10.4-24.6 10.4s-17.7-3.5-24.6-10.4l-96.2-96.2-356.6 356.5c-3.6 3.6-7.8 5.5-12.6 5.5s-8.9-1.8-12.6-5.5l-62.3-62.3c-3.6-3.6-5.5-7.8-5.5-12.6 0-4.7 1.8-8.9 5.5-12.6l356.5-356.5-96.2-96.2c-6.9-6.9-10.4-15.1-10.4-24.6 0-9.5 3.5-17.7 10.4-24.6 6.9-7 15.1-10.5 24.6-10.5h280c9.5 0 17.7 3.5 24.6 10.4 6.9 7 10.4 15.2 10.4 24.6z"/></svg>