<svg xmlns="http://www.w3.org/2000/svg" width="224" height="224" viewBox="0 0 2560 2560">
  <g fill="#1C2222">
    <path d="m1150 2395-65-46-6-35-6-36 12-4c7-3 37-4 66-2l54 3 8 70c4 39 6 76 5 83l-3 13-65-46zm-160-137-65-43-3-36-3-36 32-7c17-3 46-6 64-6h33l7 74c4 41 6 79 4 85l-4 11-65-42zm-155-134c-27-19-55-41-61-49l-10-14-3-97c-1-54-4-101-6-105l-5-6 47-7c25-3 54-6 63-6h18l7 88c11 157 14 187 21 210l6 22-13-1c-8 0-36-16-64-35zm-137-272c-1-4-23-21-48-38l-45-30-6-36-6-36 36-6c20-3 51-6 69-6h32v160h-14c-8 0-16-4-18-8zm-160-140c-1-5-24-23-50-41l-48-32v-55l33-12c18-7 48-12 65-12h32v160h-14c-8 0-16-4-18-8z"/>
    <path d="m350 1553-55-39-6-49c-4-28-8-104-9-170s-6-145-10-175l-8-55 14-14 13-14 54 41 54 40 94-13c52-8 141-19 199-26 58-6 128-14 155-18l50-6-2-76-2-77 97-11c53-6 156-18 227-26 124-14 298-33 505-55s290-32 408-47l123-15 5 5c3 3 10 72 14 154 5 81 11 185 14 229l5 82-37 6c-20 4-54 9-74 12l-38 6v38h-20v-30l-22 5c-32 6-211 25-246 25h-29l-5-82c-3-46-5-84-4-85s60-9 131-18c72-9 140-18 153-21l23-5-7-62c-4-34-8-64-10-66s-29 1-61 7-109 16-170 23l-113 12v157h-100V990l-57 5c-32 4-78 11-102 17l-44 11 5 149 6 148-22 5c-44 9-466 55-507 55h-29v-152l-37 6c-21 3-121 15-223 26s-199 23-216 26l-30 6 4 131c2 73 3 140 1 150l-4 18-55-38zm758-363c37-5 109-15 160-22l92-12v-111l-8-11-7-11-60 8c-33 5-109 15-170 22l-110 12-3 68-3 67h21c12 0 51-4 88-10z"/>
    <path d="m505 1040-6-10h-84l3-42c2-24-1-89-5-146l-9-103 7-11 8-12 25 13c13 8 41 27 60 43l36 29v249h-14c-8 0-18-4-21-10zm131-327-7-7-46 3-47 3 12-15 13-15-9-138-9-139 11-7 11-7 25 16c14 8 40 27 58 40l32 24v249h-18c-10 0-22-3-26-7zm149-324-7-11-49 7-49 7v-10c0-6 4-13 10-17l9-6-6-64-6-65 16-5 15-6 19 15c10 8 33 27 51 41l32 27v98h-14c-8 0-18-5-21-11z"/>
  </g>
  <path fill="#981915" d="m1939 2267 3-82 12-7c6-4 28-8 49-8h37v20h-23l6 63 6 63-7 10-7 11-40 6-40 6 4-82zm152-168-12-77-10-239c-6-131-13-273-16-317l-5-78 9-9 8-8 36 5 36 6 12 237c6 130 14 303 19 384l7 149-10 8c-5 4-22 9-37 12l-26 5-11-78zm186-886c-2-4-4-62-5-128V965l8 80c5 44 10 99 11 122l3 42-6 6-6 6-5-8zM458 1070l-48-30v-20h99l6 10 6 9 14-6 15-5v72h-45l-47-30zm145-321c-24-17-43-34-43-38v-8l37-6 37-6 12 10 12 10 13-3 14-3 3 38 3 37h-23l-23-1-42-30zm1524-9-47-30v-30h70l57 38 56 37-29 6c-16 4-36 7-45 8l-15 1-47-30zm-303-262c-16-12-33-25-37-28l-8-7 6-25 7-26 21 6c12 3 49 23 82 46l60 40-25 7c-14 4-37 7-51 8l-26 1-29-22zM745 429c-21-17-42-32-44-35l-5-5 14-9 15-10h64l6 10 6 10 10-5 9-6v81l-17-1h-18l-40-30zm895-104-45-34-20-3-20-3-3-28-3-28-50-32-49-32v-23l28-10 27-9 63 41 62 41 8 29 8 29 16 3c8 1 42 19 74 40l59 38-30 7c-16 4-41 7-55 8h-25l-45-34z"/>
  <path fill="#246A58" d="M1206 2392c-3-25-6-58-6-74v-30l-20-5-20-5v-18h120v75c0 41 1 78 3 82l2 8-36 6-37 5-6-44zm-157-120c-2-38-7-92-13-124l-5-28h90l-3 83-3 82-10-1c-5-1-20 2-32 7l-23 9-1-28zm-128-99-1-13-22-1-23-1 12-5 13-5-9-16-9-17-1-80c-1-44-6-107-10-140-5-33-8-61-7-62s19-3 40-5l39-3 8 30 8 30 3 133 3 132h-34l-4 18-5 17-1-12zm-163-310-38-4v-22c-1-12-2-50-3-85l-2-62h85v150h32l-12 15c-7 8-15 14-19 13-3-1-23-3-43-5zm-427-776-54-42 43-7 43-7 53 37c30 20 54 40 54 43 0 7-53 20-74 18-6 0-35-19-65-42zm224-13-20-15-5-127-5-127-53-39-53-40 33-11 33-11 35 17c19 10 45 26 57 36l22 18 7 158 7 157h-19l-19-1-20-15zm140-320-20-15-5-132-5-132-52-35c-29-19-52-38-53-41 0-4 16-10 35-13l34-7 28 15c15 8 40 25 55 38l28 23 7 158 6 157h-19l-19-1-20-15zm141-325-26-20v-97l-28-24c-16-12-40-32-55-43l-28-20 38-7 38-6 50 31c28 17 53 36 57 42l8 10v155h-14c-7 0-25-9-40-21z"/>
  <path fill="#F11A18" d="M2129 1396c-3-3-19-6-36-8l-31-2-6-64c-4-36-6-66-4-67 2-2 20-6 40-10l37-7 6 34c3 18 5 55 3 81l-3 49-6-6zm-1282-13-7-6v-145l16-6c9-3 27-6 40-6h24v69c0 38 3 76 6 85l6 16h-39c-22 0-43-3-46-7zm900-170-6-78 8-8c4-4 23-10 42-13l35-6v19c1 10 3 50 4 88l4 70-41 3-40 3-6-78zm-457-91c0-32-3-67-6-78l-6-21 38-7 37-7 8 13 9 13v135l-22 1c-13 0-31 2-40 4l-18 3v-56zm307 31-7-6V992l16-6c9-3 27-6 40-6h24v150h30v17l-37 7c-49 8-58 7-66-1zm448-86c-4-13-5-48-3-78l3-54 36-3 36-3 7 72 7 72-13 8c-7 5-25 9-40 9h-28l-5-23zM830 991v-81h18c9 0 26-3 37-6l21-5-1 83v83l-37 3-38 3v-80zm1087-298-7-6V542l-15-12c-8-7-15-18-15-25v-13l16-6c9-3 24-6 33-6h18l7 77c3 42 6 91 6 110v33h-18c-10 0-22-3-25-7zm-167-297v-24l-16-6-15-6 6-10 6-10h59l1 13c0 6 3 24 5 40l5 27h-51v-24z"/>
  <path fill="#AD634C" d="M1270 2345v-78l-80 7-80 6v-152l-67 7c-38 4-72 8-78 8l-10 2-5-145-5-145-7-11-8-12-37 9c-21 5-53 9-70 9h-33v-150h-40v-20h32l-6-42c-3-24-8-90-12-148l-6-105 46-11 47-11 5 9c3 4 14 8 25 8h19v20h-30v120h150l1 48c1 26 4 92 8 147l6 100 20-1c11 0 43-4 71-8l51-7 7 32c3 17 6 54 6 81v50l23-6c12-3 45-9 73-12l51-6 5 71c3 40 8 74 11 77l5 5 149-16c81-9 191-22 243-28l95-12 3-77 3-78h24c13 0 47-5 76-11l52-11-7-137c-4-75-9-178-13-228l-6-93h81l5 68c3 37 10 174 16 305l10 239 12 79c6 44 9 82 7 85-3 3-32 5-64 5-33 0-67 3-76 5l-18 5v148l-17 9-18 9-75 7c-41 3-114 11-162 16-49 6-127 14-175 20-49 5-121 13-160 16l-73 7v-78zM600 1046c0-29-3-100-6-158l-7-106 39-5c21-4 56-9 78-13l39-7-7-152-7-153 76-7 77-7-4-78-3-78 95-11c52-6 156-18 230-26 74-9 179-21 233-27l97-10 15 12 15 12v39l18 5c32 11 57 25 92 54l35 28-7 7-6 6-129 9c-216 15-431 40-535 62l-47 9-3 77-3 77-70 10-70 10 3 153 3 152h-26c-15 0-46 5-71 11l-44 11v118h74l-10 9-9 8-77 7-78 6v-54zm470-856c0-5 8-11 18-14 21-7 180-25 295-33l77-6v12c0 6-4 11-9 11s-62 6-128 14c-65 8-148 17-185 20l-68 5v-9z"/>
  <path fill="#7F7D7E" d="m1452 1167-4-154 46-13 47-13 6 7 7 7-13 8-13 9 3 146 4 146-13 5c-8 3-26 5-40 5h-27l-3-153zm-1050-91-62-44 34-6 34-6 53 35c29 19 59 35 66 35h13v-42l25 16c13 9 26 16 29 16s7-24 9-52l3-53 2 58 2 57 23 1 22 1-60 9c-33 4-76 10-95 13l-35 5-63-43zm190-223-2-71-47-31c-25-17-50-31-55-31-4 0-8-4-8-10v-10h79l55 38c30 20 55 40 56 45v7h-69l-4 68-3 67-2-72zm1358-109v-49l23-1c12-1 49-4 82-8l60-8-14 10-15 10 53 34 54 33-34 7c-19 4-73 11-121 14l-88 7v-49zm-1270 5v-21l25 16c13 9 26 16 29 16s7-19 9-42l4-43 1 48 2 47h-70v-21zm25-303c-16-16-43-34-59-41l-29-12 10-6c6-4 23-7 39-9l30-2 46 32c26 18 50 37 53 42l6 10h-59l-4 8-3 7-30-29zm105-21c0-30 4-31 38-4l27 21 6-34 6-33 2 38 1 37h-80v-25zm58-135c-2-3-27-20-56-39l-53-34 5-5c9-8 162-22 296-27l125-5 133-16 133-16 55 36 54 36v10c0 13-13 13-27-1l-10-10-84 10c-46 5-151 17-234 26-82 9-192 22-242 29l-93 12-2-6z"/>
  <path fill="#F35743" d="M1780 1971v-78l31-7c17-3 37-6 43-6h11l-2 74-1 75-7 10-6 11h-69v-79zm146-162c-3-41-8-147-11-235l-6-162 23-6c13-3 33-6 46-6h23l-5 9-6 8 12 222 11 221-5 6c-3 2-21 7-41 11l-35 5-6-73zM705 1702l-5-5v-307h67l7 93c4 50 9 117 12 148l6 56-40 10-41 11-6-6zm1170-994c-3-13-6-63-8-113l-2-90-15 4c-8 1-40 5-72 8l-56 6-7-69c-4-38-9-77-11-86l-5-18h15c8 0 21 3 30 6l16 6v48h28l6-12 5-13-2 27-2 27 34 26c19 14 40 25 46 25 5 0 17 10 25 22l15 23 5 75 5 75 18-1 17-2v36l-16 6c-9 3-26 6-40 6h-24l-5-22zm-831-277 5-8 88-11c110-14 254-30 356-38l77-7v23h-12c-18 0-286 29-366 40-40 6-91 10-113 10h-40l5-9z"/>
  <path fill="#1EC3BD" d="m598 1722-37-3-3-79-3-79 20-5c11-3 30-6 43-6h22v148l11 4 11 4-13 9-14 10-37-3zm-175-130-23-3v-102c0-56-3-125-6-153l-6-51 37-7 38-7 8 8 8 8 2 149 2 149-19 7c-10 3-29 4-41 2zm569-459 3-78 35-3 36-3 10 76c5 42 7 78 5 81-2 2-24 4-48 4h-44l3-77zm758-83v-80h80v148l-31 6c-17 3-35 6-40 6h-9v-80z"/>
  <path fill="#F582A4" d="M1459 1478c0-2-2-34-3-72l-3-70-12-4-11-4 6-9 5-9h29c15 0 34-2 42-5l13-5-3-147-4-146 14-8c7-5 25-9 41-9h27v149l9 5 9 6 54-10c29-6 64-13 77-16l24-5-10 13-10 13 5 68 4 67h28v10c0 6-5 10-10 10h-10l6 69 7 68-10 6c-18 11-311 43-314 35zm421-720v-43l40-2 40-1v76l-16 6c-9 3-27 6-40 6h-24v-42z"/>
  <path fill="#ACCBAF" d="M1339 2097c0-6-4-45-8-84l-7-73h83l9 76 10 76-10 3c-6 2-26 6-43 9l-33 6-1-13zm-160-173c-1-27-1-52-1-55 1-4-3-21-8-38l-9-31h97l4 78c2 42 3 78 3 79-1 1-20 5-43 9l-42 7-1-49zm-152-101-7-6v-52c0-29-3-93-6-143l-7-92h-57v-18l66-7 66-7 6 7 7 7 3 150 3 151-13 8c-16 10-52 12-61 2zm-160-289-7-7v-134l34-10 35-11 5 6c3 3 6 38 6 79v73h-19c-11 0-26 2-33 5l-14 6-7-7zm-177-523v-69l50-12 50-12 25 6 25 6v138l-22 6c-13 3-47 6-75 6h-53v-69zm140-223c0-73-3-143-6-154l-6-22 40-4 40-3 7 149 7 148-13 9c-8 5-26 9-41 9h-28V788zm138-267 3-79 22-6c12-3 30-6 40-6h17v158l-22 6c-13 3-32 6-43 6h-20l3-79z"/>
  <path fill="#F3CEB1" d="m1405 2021-7-73-72 4-71 3-5-78-5-77 32-6 33-6 15 6 15 5v131h50c27 0 98-6 157-14s137-18 171-21l64-7-4-77-3-76 73-9c40-5 74-7 77-5 2 3 5 41 7 84l3 80-30 3c-16 1-49 5-72 8l-43 5v150l-12 4c-12 4-147 18-299 32l-67 6-7-72zm-316-328c0-121-4-172-13-181-3-2-35 1-72 7-38 6-69 9-70 8s-3-36-6-78l-3-77 60-6c173-19 347-37 407-43l66-6 7 56 7 57-5 15-6 14 9 6 10 6 136-16c75-8 141-18 146-21l10-6-7-69-7-68 39-9c21-6 70-13 108-17 39-3 89-8 112-11l41-6 7 56 7 56-6 25-6 25h-48c-26 0-58 3-71 7l-24 6 7 83 7 83-18-1c-10 0-81 7-158 16-77 8-185 20-240 26s-138 15-185 21c-47 5-98 10-115 12l-30 2-3 71-3 72-31 6c-17 3-37 6-44 6h-14l-1-127zm-459-58v-75l-62 7c-35 3-70 7-78 7l-15 1-5-150c-3-82-4-151-4-153 2-3 339-42 366-42h18v148l-50 11c-28 6-60 11-71 11h-20l3 155 3 155h-85v-75zm610-458c0-6 7-19 16-29l17-18 5-50 5-50 8 6 9 5v137l-30 4-30 5v-10zM832 998l-2-58-27-6c-48-10-49-12-10-13l37-1 1-27 2-28 4 22 4 22 27 4 27 4-27 2-27 1-4 68-3 67-2-57zm65-199c-4-63-7-133-7-156v-43h25c13 0 47-5 75-11l52-11-4-74-3-74h38c21 0 68-4 105-9s117-15 177-21c127-13 312-38 338-46l17-5 4 13c3 7 8 43 11 81l7 67h26c15 0 44-5 66-11l38-11 8 9 7 8 7 148 6 148-12 3c-7 2-69 9-138 16-69 6-222 23-340 36-118 14-258 29-310 34-52 6-116 13-141 16l-46 6-6-113z"/>
  <path fill="#F3EAE4" d="m1328 1876-3-71-78 4-78 3 3-78 3-79 30-2c17-2 68-7 115-12 47-6 130-15 185-21s163-18 240-26c77-9 149-17 160-18l20-1 3 76 3 76-73 9-73 9 4 76 3 77-63 7c-35 3-113 12-174 20-60 8-136 16-167 18l-57 4-3-71zm-262-722c-3-26-6-59-6-74v-28l15-5c8-4 49-9 92-12s88-8 101-11l22-4v89l-10 23c-5 13-15 30-22 39l-13 16-86 7-86 7-7-47zm754-104v-77l-1-8 53-6c29-4 81-9 114-13l62-5 4 72c3 39 4 74 2 75-2 4-196 31-221 32h-13v-70z"/>
</svg>